<svg width="100" height="120" viewBox="0 0 100 120" fill="none" xmlns="http://www.w3.org/2000/svg">
<g clip-path="url(#clip0)">
<g filter="url(#filter0_d)">
<path d="M0.840008 7.75392C0.391489 3.61374 3.63489 0 7.79929 0L92.1032 0C96.3022 0 99.5564 3.67108 99.0527 7.83973L86.2444 113.84C85.8196 117.355 82.8361 120 79.2949 120H19.2826C15.7084 120 12.7083 117.307 12.3233 113.754L0.840008 7.75392Z" fill="url(#paint0_linear)"/>
</g>
<path d="M47.659 22.79C47.659 23.4187 47.866 23.9017 48.28 24.239C48.7093 24.5763 49.2843 24.745 50.005 24.745C50.649 24.745 51.1243 24.6377 51.431 24.423C51.7377 24.2083 51.9983 23.8863 52.213 23.457C52.4123 23.0583 52.6807 22.859 53.018 22.859H57.986C58.124 22.859 58.239 22.9127 58.331 23.02C58.4383 23.112 58.492 23.227 58.492 23.365C58.492 24.3003 58.1777 25.2203 57.549 26.125C56.9203 27.0143 55.962 27.758 54.674 28.356C53.4013 28.9387 51.845 29.23 50.005 29.23C48.3643 29.23 46.9 28.9847 45.612 28.494C44.3393 27.988 43.3273 27.2213 42.576 26.194C41.8247 25.1513 41.449 23.8557 41.449 22.307V19.593C41.449 18.0443 41.8247 16.7563 42.576 15.729C43.3273 14.6863 44.3393 13.9197 45.612 13.429C46.9 12.923 48.3643 12.67 50.005 12.67C51.845 12.67 53.4013 12.969 54.674 13.567C55.962 14.1497 56.9203 14.8933 57.549 15.798C58.1777 16.6873 58.492 17.5997 58.492 18.535C58.492 18.673 58.4383 18.7957 58.331 18.903C58.239 18.995 58.124 19.041 57.986 19.041H53.018C52.6807 19.041 52.4123 18.8417 52.213 18.443C51.9983 18.0137 51.7377 17.6917 51.431 17.477C51.1243 17.2623 50.649 17.155 50.005 17.155C49.2843 17.155 48.7093 17.3237 48.28 17.661C47.866 17.9983 47.659 18.4813 47.659 19.11V22.79ZM51.04 46.742C52.7267 46.926 54.076 47.225 55.088 47.639C56.1153 48.053 56.859 48.5973 57.319 49.272C57.779 49.9467 58.009 50.79 58.009 51.802C58.009 52.906 57.6487 53.872 56.928 54.7C56.2227 55.5127 55.2413 56.1413 53.984 56.586C52.7267 57.0153 51.293 57.23 49.683 57.23C47.889 57.23 46.371 57.0077 45.129 56.563C43.887 56.1183 42.9593 55.528 42.346 54.792C41.7327 54.0407 41.426 53.2203 41.426 52.331C41.426 52.1777 41.472 52.055 41.564 51.963C41.6713 51.871 41.8017 51.825 41.955 51.825H46.67C46.992 51.825 47.2527 51.9247 47.452 52.124C47.7127 52.3693 48.004 52.538 48.326 52.63C48.648 52.7067 49.1003 52.745 49.683 52.745C51.1397 52.745 51.868 52.5227 51.868 52.078C51.868 51.894 51.7683 51.7407 51.569 51.618C51.385 51.48 51.0477 51.365 50.557 51.273C50.0817 51.1657 49.3763 51.0583 48.441 50.951C46.3403 50.7057 44.7303 50.1843 43.611 49.387C42.4917 48.5743 41.932 47.432 41.932 45.96C41.932 44.9173 42.2463 43.9973 42.875 43.2C43.5037 42.4027 44.393 41.7817 45.543 41.337C46.7083 40.8923 48.0577 40.67 49.591 40.67C51.1857 40.67 52.581 40.923 53.777 41.429C54.973 41.9197 55.8853 42.533 56.514 43.269C57.1427 44.005 57.457 44.7257 57.457 45.431C57.457 45.5843 57.4033 45.707 57.296 45.799C57.204 45.891 57.0737 45.937 56.905 45.937H51.96C51.6993 45.937 51.4617 45.845 51.247 45.661C51.0783 45.5077 50.879 45.385 50.649 45.293C50.419 45.201 50.0663 45.155 49.591 45.155C48.5637 45.155 48.05 45.3697 48.05 45.799C48.05 46.029 48.2493 46.213 48.648 46.351C49.0467 46.4737 49.844 46.604 51.04 46.742ZM51.04 74.742C52.7267 74.926 54.076 75.225 55.088 75.639C56.1153 76.053 56.859 76.5973 57.319 77.272C57.779 77.9467 58.009 78.79 58.009 79.802C58.009 80.906 57.6487 81.872 56.928 82.7C56.2227 83.5127 55.2413 84.1413 53.984 84.586C52.7267 85.0153 51.293 85.23 49.683 85.23C47.889 85.23 46.371 85.0077 45.129 84.563C43.887 84.1183 42.9593 83.528 42.346 82.792C41.7327 82.0407 41.426 81.2203 41.426 80.331C41.426 80.1777 41.472 80.055 41.564 79.963C41.6713 79.871 41.8017 79.825 41.955 79.825H46.67C46.992 79.825 47.2527 79.9247 47.452 80.124C47.7127 80.3693 48.004 80.538 48.326 80.63C48.648 80.7067 49.1003 80.745 49.683 80.745C51.1397 80.745 51.868 80.5227 51.868 80.078C51.868 79.894 51.7683 79.7407 51.569 79.618C51.385 79.48 51.0477 79.365 50.557 79.273C50.0817 79.1657 49.3763 79.0583 48.441 78.951C46.3403 78.7057 44.7303 78.1843 43.611 77.387C42.4917 76.5743 41.932 75.432 41.932 73.96C41.932 72.9173 42.2463 71.9973 42.875 71.2C43.5037 70.4027 44.393 69.7817 45.543 69.337C46.7083 68.8923 48.0577 68.67 49.591 68.67C51.1857 68.67 52.581 68.923 53.777 69.429C54.973 69.9197 55.8853 70.533 56.514 71.269C57.1427 72.005 57.457 72.7257 57.457 73.431C57.457 73.5843 57.4033 73.707 57.296 73.799C57.204 73.891 57.0737 73.937 56.905 73.937H51.96C51.6993 73.937 51.4617 73.845 51.247 73.661C51.0783 73.5077 50.879 73.385 50.649 73.293C50.419 73.201 50.0663 73.155 49.591 73.155C48.5637 73.155 48.05 73.3697 48.05 73.799C48.05 74.029 48.2493 74.213 48.648 74.351C49.0467 74.4737 49.844 74.604 51.04 74.742ZM53.432 103.202C56.3607 103.892 57.825 105.479 57.825 107.963C57.825 109.006 57.48 109.926 56.79 110.723C56.1153 111.52 55.1723 112.141 53.961 112.586C52.7497 113.015 51.3773 113.23 49.844 113.23C48.0193 113.23 46.509 112.977 45.313 112.471C44.1323 111.95 43.266 111.321 42.714 110.585C42.1773 109.849 41.909 109.136 41.909 108.446C41.909 108.293 41.955 108.17 42.047 108.078C42.1543 107.986 42.277 107.94 42.415 107.94H47.452C47.6207 107.94 47.797 108.032 47.981 108.216C48.1957 108.415 48.4103 108.561 48.625 108.653C48.8397 108.73 49.2537 108.768 49.867 108.768C50.4497 108.768 50.8867 108.653 51.178 108.423C51.4693 108.193 51.615 107.902 51.615 107.549C51.615 106.874 51.0247 106.537 49.844 106.537H46.785C46.6163 106.537 46.4707 106.476 46.348 106.353C46.2253 106.23 46.164 106.085 46.164 105.916V104.053C46.164 103.838 46.21 103.654 46.302 103.501C46.394 103.332 46.509 103.21 46.647 103.133L50.028 101.385H43.588C43.4193 101.385 43.2737 101.324 43.151 101.201C43.0283 101.078 42.967 100.933 42.967 100.764V97.521C42.967 97.3523 43.0283 97.2067 43.151 97.084C43.2737 96.9613 43.4193 96.9 43.588 96.9H56.146C56.3147 96.9 56.4603 96.9613 56.583 97.084C56.7057 97.2067 56.767 97.3523 56.767 97.521V100.442C56.767 100.795 56.606 101.101 56.284 101.362L53.432 103.202Z" fill="black"/>
</g>
<defs>
<filter id="filter0_d" x="-3.20148" y="0" width="106.306" height="128" filterUnits="userSpaceOnUse" color-interpolation-filters="sRGB">
<feFlood flood-opacity="0" result="BackgroundImageFix"/>
<feColorMatrix in="SourceAlpha" type="matrix" values="0 0 0 0 0 0 0 0 0 0 0 0 0 0 0 0 0 0 127 0"/>
<feOffset dy="4"/>
<feGaussianBlur stdDeviation="2"/>
<feColorMatrix type="matrix" values="0 0 0 0 0 0 0 0 0 0 0 0 0 0 0 0 0 0 0.49 0"/>
<feBlend mode="normal" in2="BackgroundImageFix" result="effect1_dropShadow"/>
<feBlend mode="normal" in="SourceGraphic" in2="effect1_dropShadow" result="shape"/>
</filter>
<linearGradient id="paint0_linear" x1="16" y1="-25.4378" x2="120.37" y2="167.54" gradientUnits="userSpaceOnUse">
<stop stop-color="#2091FA"/>
<stop offset="1" stop-color="#E3E3E3" stop-opacity="0.44"/>
</linearGradient>
<clipPath id="clip0">
<rect width="100" height="120" fill="white"/>
</clipPath>
</defs>
</svg>
