<svg width="100" height="120" viewBox="0 0 100 120" fill="none" xmlns="http://www.w3.org/2000/svg">
<path d="M85.4227 0H14.5773C6.52646 0 0 7.83175 0 17.4927V102.507C0 112.168 6.52646 120 14.5773 120H85.4227C93.4735 120 100 112.168 100 102.507V17.4927C100 7.83175 93.4735 0 85.4227 0Z" fill="url(#paint0_linear)"/>
<path d="M85.4227 5.24781C88.129 5.24781 90.7245 6.5379 92.6381 8.83426C94.5517 11.1306 95.6268 14.2452 95.6268 17.4927V102.507C95.6268 105.755 94.5517 108.869 92.6381 111.166C90.7245 113.462 88.129 114.752 85.4227 114.752H14.5773C11.871 114.752 9.27552 113.462 7.36189 111.166C5.44825 108.869 4.37318 105.755 4.37318 102.507V17.4927C4.37318 14.2452 5.44825 11.1306 7.36189 8.83426C9.27552 6.5379 11.871 5.24781 14.5773 5.24781H85.4227ZM85.4227 0H14.5773C10.7111 0 7.00335 1.84298 4.26958 5.1235C1.53581 8.40401 0 12.8534 0 17.4927V102.507C0 107.147 1.53581 111.596 4.26958 114.877C7.00335 118.157 10.7111 120 14.5773 120H85.4227C89.2889 120 92.9967 118.157 95.7304 114.877C98.4642 111.596 100 107.147 100 102.507V17.4927C100 12.8534 98.4642 8.40401 95.7304 5.1235C92.9967 1.84298 89.2889 0 85.4227 0V0Z" fill="#8CCBC9"/>
<path d="M21.023 88.3C21.177 88.3 21.31 88.356 21.422 88.468C21.534 88.58 21.59 88.713 21.59 88.867V92.059C21.59 92.213 21.534 92.346 21.422 92.458C21.31 92.57 21.177 92.626 21.023 92.626H12.77V93.97H19.658C19.812 93.97 19.945 94.026 20.057 94.138C20.169 94.25 20.225 94.383 20.225 94.537V97.708C20.225 97.862 20.169 97.995 20.057 98.107C19.945 98.219 19.812 98.275 19.658 98.275H12.77V102.433C12.77 102.587 12.714 102.72 12.602 102.832C12.49 102.944 12.357 103 12.203 103H7.667C7.513 103 7.38 102.944 7.268 102.832C7.156 102.72 7.1 102.587 7.1 102.433V88.867C7.1 88.713 7.156 88.58 7.268 88.468C7.38 88.356 7.513 88.3 7.667 88.3H21.023ZM34.6228 98.695H38.4238C38.5778 98.695 38.7108 98.751 38.8228 98.863C38.9348 98.975 38.9908 99.108 38.9908 99.262V102.433C38.9908 102.587 38.9348 102.72 38.8228 102.832C38.7108 102.944 38.5778 103 38.4238 103H25.1098C24.9558 103 24.8228 102.944 24.7108 102.832C24.5988 102.72 24.5428 102.587 24.5428 102.433V99.262C24.5428 99.108 24.5988 98.975 24.7108 98.863C24.8228 98.751 24.9558 98.695 25.1098 98.695H28.9528V92.605H25.1098C24.9558 92.605 24.8228 92.549 24.7108 92.437C24.5988 92.325 24.5428 92.192 24.5428 92.038V88.867C24.5428 88.713 24.5988 88.58 24.7108 88.468C24.8228 88.356 24.9558 88.3 25.1098 88.3H38.4238C38.5778 88.3 38.7108 88.356 38.8228 88.468C38.9348 88.58 38.9908 88.713 38.9908 88.867V92.038C38.9908 92.192 38.9348 92.325 38.8228 92.437C38.7108 92.549 38.5778 92.605 38.4238 92.605H34.6228V98.695ZM57.1686 94.138C57.3226 94.138 57.4556 94.194 57.5676 94.306C57.6796 94.418 57.7356 94.551 57.7356 94.705V96.931C57.7356 99.059 57.0076 100.641 55.5516 101.677C54.1096 102.699 52.1986 103.21 49.8186 103.21C47.4386 103.21 45.5206 102.699 44.0646 101.677C42.6226 100.641 41.9016 99.045 41.9016 96.889V94.411C41.9016 92.983 42.2516 91.8 42.9516 90.862C43.6516 89.91 44.5966 89.21 45.7866 88.762C46.9766 88.314 48.3206 88.09 49.8186 88.09C51.6106 88.09 53.0876 88.384 54.2496 88.972C55.4116 89.56 56.2516 90.225 56.7696 90.967C57.3016 91.709 57.5676 92.311 57.5676 92.773C57.5676 92.899 57.5186 93.011 57.4206 93.109C57.3366 93.193 57.2316 93.235 57.1056 93.235H52.3596C52.0796 93.235 51.8766 93.158 51.7506 93.004C51.3166 92.458 50.6726 92.185 49.8186 92.185C49.1746 92.185 48.6356 92.332 48.2016 92.626C47.7816 92.92 47.5716 93.298 47.5716 93.76V97.33C47.5716 97.89 47.7816 98.331 48.2016 98.653C48.6216 98.961 49.1606 99.115 49.8186 99.115C50.6866 99.115 51.3236 98.968 51.7296 98.674C52.1496 98.366 52.3666 98.009 52.3806 97.603H51.0786C50.9246 97.603 50.7916 97.547 50.6796 97.435C50.5676 97.323 50.5116 97.19 50.5116 97.036V94.705C50.5116 94.551 50.5676 94.418 50.6796 94.306C50.7916 94.194 50.9246 94.138 51.0786 94.138H57.1686ZM70.2014 88.867C70.4114 88.489 70.7124 88.3 71.1044 88.3H74.9474C75.1014 88.3 75.2344 88.356 75.3464 88.468C75.4584 88.58 75.5144 88.713 75.5144 88.867V102.433C75.5144 102.587 75.4584 102.72 75.3464 102.832C75.2344 102.944 75.1014 103 74.9474 103H71.1464C70.9924 103 70.8594 102.944 70.7474 102.832C70.6354 102.72 70.5794 102.587 70.5794 102.433V95.923L69.0464 98.947C69.0044 99.045 68.9064 99.157 68.7524 99.283C68.5984 99.409 68.4024 99.472 68.1644 99.472H66.7364C66.4984 99.472 66.3024 99.409 66.1484 99.283C65.9944 99.157 65.8964 99.045 65.8544 98.947L64.3214 95.923V102.433C64.3214 102.587 64.2654 102.72 64.1534 102.832C64.0414 102.944 63.9084 103 63.7544 103H59.9534C59.7994 103 59.6664 102.944 59.5544 102.832C59.4424 102.72 59.3864 102.587 59.3864 102.433V88.867C59.3864 88.713 59.4424 88.58 59.5544 88.468C59.6664 88.356 59.7994 88.3 59.9534 88.3H63.7964C64.1884 88.3 64.4894 88.489 64.6994 88.867L67.4504 93.907L70.2014 88.867ZM82.2682 102.286C82.0862 102.762 81.7712 103 81.3232 103H77.3542C77.2282 103 77.1162 102.958 77.0182 102.874C76.9342 102.776 76.8922 102.664 76.8922 102.538L76.9132 102.412L81.4912 88.993C81.5472 88.811 81.6522 88.65 81.8062 88.51C81.9602 88.37 82.1702 88.3 82.4362 88.3H88.2742C88.5402 88.3 88.7502 88.37 88.9042 88.51C89.0582 88.65 89.1632 88.811 89.2192 88.993L93.7972 102.412L93.8182 102.538C93.8182 102.664 93.7692 102.776 93.6712 102.874C93.5872 102.958 93.4822 103 93.3562 103H89.3872C88.9392 103 88.6242 102.762 88.4422 102.286L87.9172 100.816H82.7932L82.2682 102.286ZM85.3552 92.353L83.8642 96.721H86.8462L85.3552 92.353Z" fill="black"/>
<path d="M38.628 82.768C40.155 82.768 41.6671 82.4672 43.0778 81.8828C44.4886 81.2985 45.7705 80.442 46.8502 79.3622C47.93 78.2824 48.7865 77.0006 49.3709 75.5898C49.9552 74.179 50.256 72.667 50.256 71.14V59.512H38.628C37.101 59.512 35.5889 59.8127 34.1782 60.3971C32.7674 60.9815 31.4855 61.838 30.4058 62.9177C29.326 63.9975 28.4695 65.2794 27.8851 66.6901C27.3008 68.1009 27 69.613 27 71.14C27 72.667 27.3008 74.179 27.8851 75.5898C28.4695 77.0006 29.326 78.2824 30.4058 79.3622C31.4855 80.442 32.7674 81.2985 34.1782 81.8828C35.5889 82.4672 37.101 82.768 38.628 82.768V82.768Z" fill="#0ACF83"/>
<path d="M27 47.884C27 44.8001 28.2251 41.8424 30.4058 39.6618C32.5864 37.4811 35.5441 36.256 38.628 36.256H50.256V59.512H38.628C35.5441 59.512 32.5864 58.2869 30.4058 56.1062C28.2251 53.9256 27 50.9679 27 47.884V47.884Z" fill="#A259FF"/>
<path d="M27 24.628C27 21.5441 28.2251 18.5864 30.4058 16.4058C32.5864 14.2251 35.5441 13 38.628 13H50.256V36.256H38.628C35.5441 36.256 32.5864 35.0309 30.4058 32.8502C28.2251 30.6696 27 27.7119 27 24.628V24.628Z" fill="#F24E1E"/>
<path d="M50.256 13.068H61.884C64.9679 13.068 67.9255 14.2931 70.1062 16.4737C72.2869 18.6544 73.512 21.612 73.512 24.696C73.512 27.7799 72.2869 30.7375 70.1062 32.9182C67.9255 35.0989 64.9679 36.324 61.884 36.324H50.256V13.068Z" fill="#FF7262"/>
<path d="M73.512 47.884C73.512 50.1838 72.83 52.432 71.5523 54.3442C70.2746 56.2564 68.4586 57.7468 66.3338 58.6269C64.2091 59.507 61.8711 59.7372 59.6155 59.2886C57.3599 58.8399 55.288 57.7324 53.6618 56.1062C52.0355 54.48 50.9281 52.4081 50.4794 50.1525C50.0307 47.8969 50.261 45.5589 51.1411 43.4342C52.0212 41.3094 53.5116 39.4934 55.4238 38.2157C57.336 36.938 59.5842 36.256 61.884 36.256C64.9679 36.256 67.9256 37.4811 70.1062 39.6618C72.2869 41.8424 73.512 44.8001 73.512 47.884Z" fill="#1ABCFE"/>
<defs>
<linearGradient id="paint0_linear" x1="50" y1="0" x2="50" y2="120" gradientUnits="userSpaceOnUse">
<stop stop-color="#3EBC8F" stop-opacity="0.76"/>
<stop offset="1" stop-color="#8BAEF2" stop-opacity="0.41"/>
</linearGradient>
</defs>
</svg>
