<svg width="100" height="120" viewBox="0 0 100 120" fill="none" xmlns="http://www.w3.org/2000/svg">
<g clip-path="url(#clip0)">
<g filter="url(#filter0_d)">
<path d="M0.85871 7.76902C0.400538 3.62379 3.64587 0 7.81634 0L92.084 0C96.2898 0 99.546 3.68236 99.0314 7.8565L86.2574 111.472C85.8249 114.98 82.8448 117.615 79.31 117.615H19.2689C15.7005 117.615 12.7033 114.931 12.3113 111.384L0.85871 7.76902Z" fill="url(#paint0_linear)"/>
</g>
<path d="M27.192 22.4602C27.368 22.4602 27.52 22.5242 27.648 22.6522C27.776 22.7802 27.84 22.9322 27.84 23.1082V38.6122C27.84 38.7882 27.776 38.9402 27.648 39.0682C27.52 39.1962 27.368 39.2602 27.192 39.2602H22.248C22.072 39.2602 21.92 39.1962 21.792 39.0682C21.664 38.9402 21.6 38.7882 21.6 38.6122V33.5002H16.8V38.6122C16.8 38.7882 16.736 38.9402 16.608 39.0682C16.48 39.1962 16.328 39.2602 16.152 39.2602H11.208C11.032 39.2602 10.88 39.2042 10.752 39.0922C10.624 38.9642 10.56 38.8042 10.56 38.6122V23.1082C10.56 22.9322 10.624 22.7802 10.752 22.6522C10.88 22.5242 11.032 22.4602 11.208 22.4602H16.152C16.328 22.4602 16.48 22.5242 16.608 22.6522C16.736 22.7802 16.8 22.9322 16.8 23.1082V28.0282H21.6V23.1082C21.6 22.9322 21.664 22.7802 21.792 22.6522C21.92 22.5242 22.072 22.4602 22.248 22.4602H27.192ZM47.8706 22.4602C48.0466 22.4602 48.1986 22.5242 48.3266 22.6522C48.4546 22.7802 48.5186 22.9322 48.5186 23.1082V26.9722C48.5186 27.1482 48.4546 27.3002 48.3266 27.4282C48.1986 27.5562 48.0466 27.6202 47.8706 27.6202H42.7106V38.6122C42.7106 38.7882 42.6466 38.9402 42.5186 39.0682C42.3906 39.1962 42.2386 39.2602 42.0626 39.2602H37.1186C36.9426 39.2602 36.7906 39.1962 36.6626 39.0682C36.5346 38.9402 36.4706 38.7882 36.4706 38.6122V27.6202H31.3106C31.1346 27.6202 30.9826 27.5562 30.8546 27.4282C30.7266 27.3002 30.6626 27.1482 30.6626 26.9722V23.1082C30.6626 22.9322 30.7266 22.7802 30.8546 22.6522C30.9826 22.5242 31.1346 22.4602 31.3106 22.4602H47.8706ZM63.1253 23.1082C63.3653 22.6762 63.7093 22.4602 64.1573 22.4602H68.5493C68.7253 22.4602 68.8773 22.5242 69.0053 22.6522C69.1333 22.7802 69.1973 22.9322 69.1973 23.1082V38.6122C69.1973 38.7882 69.1333 38.9402 69.0053 39.0682C68.8773 39.1962 68.7253 39.2602 68.5493 39.2602H64.2053C64.0293 39.2602 63.8773 39.1962 63.7493 39.0682C63.6213 38.9402 63.5573 38.7882 63.5573 38.6122V31.1722L61.8053 34.6282C61.7573 34.7402 61.6453 34.8682 61.4693 35.0122C61.2933 35.1562 61.0693 35.2282 60.7973 35.2282H59.1653C58.8933 35.2282 58.6693 35.1562 58.4933 35.0122C58.3173 34.8682 58.2053 34.7402 58.1573 34.6282L56.4053 31.1722V38.6122C56.4053 38.7882 56.3413 38.9402 56.2133 39.0682C56.0853 39.1962 55.9333 39.2602 55.7573 39.2602H51.4133C51.2373 39.2602 51.0853 39.1962 50.9573 39.0682C50.8293 38.9402 50.7653 38.7882 50.7653 38.6122V23.1082C50.7653 22.9322 50.8293 22.7802 50.9573 22.6522C51.0853 22.5242 51.2373 22.4602 51.4133 22.4602H55.8053C56.2533 22.4602 56.5973 22.6762 56.8372 23.1082L59.9813 28.8682L63.1253 23.1082ZM88.1959 34.3402C88.3719 34.3402 88.5239 34.4042 88.6519 34.5322C88.7799 34.6602 88.8439 34.8122 88.8439 34.9882V38.6122C88.8439 38.7882 88.7799 38.9402 88.6519 39.0682C88.5239 39.1962 88.3719 39.2602 88.1959 39.2602H74.1799C74.0039 39.2602 73.8519 39.1962 73.7239 39.0682C73.5959 38.9402 73.5319 38.7882 73.5319 38.6122V23.1082C73.5319 22.9322 73.5959 22.7802 73.7239 22.6522C73.8519 22.5242 74.0039 22.4602 74.1799 22.4602H79.3639C79.5399 22.4602 79.6919 22.5242 79.8199 22.6522C79.9479 22.7802 80.0119 22.9322 80.0119 23.1082V34.3402H88.1959Z" fill="black"/>
<path d="M46.391 90.3725C46.8857 91.0085 47.4333 91.4855 48.034 91.8035C48.6347 92.0862 49.359 92.2275 50.207 92.2275C51.4437 92.2275 52.4153 91.9449 53.122 91.3795C53.864 90.7789 54.235 89.9662 54.235 88.9415C54.235 87.9169 53.864 87.1219 53.122 86.5565C52.38 85.9912 51.4083 85.7085 50.207 85.7085C49.5357 85.7085 48.988 85.7969 48.564 85.9735C48.14 86.1149 47.716 86.3092 47.292 86.5565C46.9033 86.8392 46.5677 86.9805 46.285 86.9805H35.738C35.42 86.9805 35.1373 86.8745 34.89 86.6625C34.678 86.4152 34.572 86.1325 34.572 85.8145C34.572 85.6379 34.572 85.5495 34.572 85.5495L36.639 67.1585C36.7097 66.4872 36.9747 65.9572 37.434 65.5685C37.8933 65.1445 38.4587 64.9325 39.13 64.9325H64.305C64.6937 64.9325 65.0293 65.0739 65.312 65.3565C65.5947 65.6392 65.736 65.9749 65.736 66.3635V73.8365C65.736 74.2252 65.5947 74.5609 65.312 74.8435C65.0293 75.1262 64.6937 75.2675 64.305 75.2675H47.504L47.08 78.9245C48.14 78.2532 49.2353 77.7939 50.366 77.5465C51.4967 77.2639 53.0337 77.1225 54.977 77.1225C57.309 77.1225 59.4997 77.6525 61.549 78.7125C63.6337 79.7725 65.2943 81.2389 66.531 83.1115C67.803 84.9489 68.439 87.0159 68.439 89.3125C68.439 91.8212 67.6793 94.0825 66.16 96.0965C64.676 98.1105 62.556 99.7005 59.8 100.867C57.044 101.997 53.8287 102.563 50.154 102.563C46.55 102.563 43.423 102.033 40.773 100.973C38.123 99.8772 36.0913 98.4285 34.678 96.6265C33.3 94.8245 32.611 92.8459 32.611 90.6905C32.611 90.3725 32.717 90.1075 32.929 89.8955C33.1763 89.6482 33.459 89.5245 33.777 89.5245H44.483C45.2957 89.5245 45.9317 89.8072 46.391 90.3725Z" fill="black"/>
</g>
<defs>
<filter id="filter0_d" x="-3.18448" y="0" width="106.27" height="125.615" filterUnits="userSpaceOnUse" color-interpolation-filters="sRGB">
<feFlood flood-opacity="0" result="BackgroundImageFix"/>
<feColorMatrix in="SourceAlpha" type="matrix" values="0 0 0 0 0 0 0 0 0 0 0 0 0 0 0 0 0 0 127 0"/>
<feOffset dy="4"/>
<feGaussianBlur stdDeviation="2"/>
<feColorMatrix type="matrix" values="0 0 0 0 0 0 0 0 0 0 0 0 0 0 0 0 0 0 0.49 0"/>
<feBlend mode="normal" in2="BackgroundImageFix" result="effect1_dropShadow"/>
<feBlend mode="normal" in="SourceGraphic" in2="effect1_dropShadow" result="shape"/>
</filter>
<linearGradient id="paint0_linear" x1="50" y1="0" x2="50" y2="160.434" gradientUnits="userSpaceOnUse">
<stop stop-color="#FF8F8F"/>
<stop offset="1" stop-color="#FFE6E6" stop-opacity="0.44"/>
</linearGradient>
<clipPath id="clip0">
<rect width="100" height="120" fill="white"/>
</clipPath>
</defs>
</svg>
