<svg width="100" height="120" viewBox="0 0 100 120" fill="none" xmlns="http://www.w3.org/2000/svg">
<g clip-path="url(#clip0)">
<g filter="url(#filter0_d)">
<path d="M0.840008 7.75392C0.391489 3.61374 3.63489 0 7.79929 0L92.1032 0C96.3022 0 99.5564 3.67108 99.0527 7.83972L86.2444 113.84C85.8196 117.355 82.8361 120 79.2949 120H19.2826C15.7084 120 12.7083 117.307 12.3233 113.754L0.840008 7.75392Z" fill="url(#paint0_linear)"/>
</g>
<path d="M46.256 65.778C46.256 70.034 44.856 73.212 42.056 75.312C39.256 77.384 35.518 78.42 30.842 78.42C27.482 78.42 24.612 77.888 22.232 76.824C19.88 75.732 18.102 74.36 16.898 72.708C15.722 71.056 15.134 69.39 15.134 67.71C15.134 67.458 15.218 67.248 15.386 67.08C15.582 66.884 15.806 66.786 16.058 66.786H25.55C25.802 66.786 26.012 66.87 26.18 67.038C26.376 67.206 26.516 67.43 26.6 67.71C27.132 69.39 28.476 70.23 30.632 70.23C31.948 70.23 32.984 69.922 33.74 69.306C34.524 68.69 34.916 67.808 34.916 66.66V57.21H19.586C19.278 57.21 19.012 57.098 18.788 56.874C18.564 56.65 18.452 56.384 18.452 56.076V49.734C18.452 49.426 18.564 49.16 18.788 48.936C19.012 48.712 19.278 48.6 19.586 48.6H45.122C45.43 48.6 45.696 48.712 45.92 48.936C46.144 49.16 46.256 49.426 46.256 49.734V65.778ZM69.8436 59.268C72.9236 59.604 75.3876 60.15 77.2356 60.906C79.1116 61.662 80.4696 62.656 81.3096 63.888C82.1496 65.12 82.5696 66.66 82.5696 68.508C82.5696 70.524 81.9116 72.288 80.5956 73.8C79.3076 75.284 77.5156 76.432 75.2196 77.244C72.9236 78.028 70.3056 78.42 67.3656 78.42C64.0896 78.42 61.3176 78.014 59.0496 77.202C56.7816 76.39 55.0876 75.312 53.9676 73.968C52.8476 72.596 52.2876 71.098 52.2876 69.474C52.2876 69.194 52.3716 68.97 52.5396 68.802C52.7356 68.634 52.9736 68.55 53.2536 68.55H61.8636C62.4516 68.55 62.9276 68.732 63.2916 69.096C63.7676 69.544 64.2996 69.852 64.8876 70.02C65.4756 70.16 66.3016 70.23 67.3656 70.23C70.0256 70.23 71.3556 69.824 71.3556 69.012C71.3556 68.676 71.1736 68.396 70.8096 68.172C70.4736 67.92 69.8576 67.71 68.9616 67.542C68.0936 67.346 66.8056 67.15 65.0976 66.954C61.2616 66.506 58.3216 65.554 56.2776 64.098C54.2336 62.614 53.2116 60.528 53.2116 57.84C53.2116 55.936 53.7856 54.256 54.9336 52.8C56.0816 51.344 57.7056 50.21 59.8056 49.398C61.9336 48.586 64.3976 48.18 67.1976 48.18C70.1096 48.18 72.6576 48.642 74.8416 49.566C77.0256 50.462 78.6916 51.582 79.8396 52.926C80.9876 54.27 81.5616 55.586 81.5616 56.874C81.5616 57.154 81.4636 57.378 81.2676 57.546C81.0996 57.714 80.8616 57.798 80.5536 57.798H71.5236C71.0476 57.798 70.6136 57.63 70.2216 57.294C69.9136 57.014 69.5496 56.79 69.1296 56.622C68.7096 56.454 68.0656 56.37 67.1976 56.37C65.3216 56.37 64.3836 56.762 64.3836 57.546C64.3836 57.966 64.7476 58.302 65.4756 58.554C66.2036 58.778 67.6596 59.016 69.8436 59.268Z" fill="black"/>
</g>
<defs>
<filter id="filter0_d" x="-3.20151" y="0" width="106.306" height="128" filterUnits="userSpaceOnUse" color-interpolation-filters="sRGB">
<feFlood flood-opacity="0" result="BackgroundImageFix"/>
<feColorMatrix in="SourceAlpha" type="matrix" values="0 0 0 0 0 0 0 0 0 0 0 0 0 0 0 0 0 0 127 0"/>
<feOffset dy="4"/>
<feGaussianBlur stdDeviation="2"/>
<feColorMatrix type="matrix" values="0 0 0 0 0 0 0 0 0 0 0 0 0 0 0 0 0 0 0.53 0"/>
<feBlend mode="normal" in2="BackgroundImageFix" result="effect1_dropShadow"/>
<feBlend mode="normal" in="SourceGraphic" in2="effect1_dropShadow" result="shape"/>
</filter>
<linearGradient id="paint0_linear" x1="16" y1="-25.4378" x2="120.37" y2="167.54" gradientUnits="userSpaceOnUse">
<stop stop-color="#EBEE67"/>
<stop offset="1" stop-color="#CBB2D1" stop-opacity="0.61"/>
</linearGradient>
<clipPath id="clip0">
<rect width="100" height="120" fill="white"/>
</clipPath>
</defs>
</svg>
