<svg width="215" height="231" viewBox="0 0 215 231" fill="none" xmlns="http://www.w3.org/2000/svg">
<g filter="url(#filter0_d)">
<path d="M112.042 46.7539C111.593 42.6137 114.836 39 119.001 39H203.305C207.504 39 210.758 42.6711 210.254 46.8397L197.446 152.84C197.021 156.355 194.038 159 190.496 159H130.484C126.91 159 123.91 156.307 123.525 152.754L112.042 46.7539Z" fill="url(#paint0_linear)"/>
</g>
<path d="M157.458 104.778C157.458 109.034 156.058 112.212 153.258 114.312C150.458 116.384 146.72 117.42 142.044 117.42C138.684 117.42 135.814 116.888 133.434 115.824C131.082 114.732 129.304 113.36 128.1 111.708C126.924 110.056 126.336 108.39 126.336 106.71C126.336 106.458 126.42 106.248 126.588 106.08C126.784 105.884 127.008 105.786 127.26 105.786H136.752C137.004 105.786 137.214 105.87 137.382 106.038C137.578 106.206 137.718 106.43 137.802 106.71C138.334 108.39 139.678 109.23 141.834 109.23C143.15 109.23 144.186 108.922 144.942 108.306C145.726 107.69 146.118 106.808 146.118 105.66V96.2101H130.788C130.48 96.2101 130.214 96.0981 129.99 95.8741C129.766 95.6501 129.654 95.3841 129.654 95.0761V88.7341C129.654 88.4261 129.766 88.1601 129.99 87.9361C130.214 87.7121 130.48 87.6001 130.788 87.6001H156.324C156.632 87.6001 156.898 87.7121 157.122 87.9361C157.346 88.1601 157.458 88.4261 157.458 88.7341V104.778ZM181.045 98.2681C184.125 98.6041 186.589 99.1501 188.437 99.9061C190.313 100.662 191.671 101.656 192.511 102.888C193.351 104.12 193.771 105.66 193.771 107.508C193.771 109.524 193.113 111.288 191.797 112.8C190.509 114.284 188.717 115.432 186.421 116.244C184.125 117.028 181.507 117.42 178.567 117.42C175.291 117.42 172.519 117.014 170.251 116.202C167.983 115.39 166.289 114.312 165.169 112.968C164.049 111.596 163.489 110.098 163.489 108.474C163.489 108.194 163.573 107.97 163.741 107.802C163.937 107.634 164.175 107.55 164.455 107.55H173.065C173.653 107.55 174.129 107.732 174.493 108.096C174.969 108.544 175.501 108.852 176.089 109.02C176.677 109.16 177.503 109.23 178.567 109.23C181.227 109.23 182.557 108.824 182.557 108.012C182.557 107.676 182.375 107.396 182.011 107.172C181.675 106.92 181.059 106.71 180.163 106.542C179.295 106.346 178.007 106.15 176.299 105.954C172.463 105.506 169.523 104.554 167.479 103.098C165.435 101.614 164.413 99.5281 164.413 96.8401C164.413 94.9361 164.987 93.2561 166.135 91.8001C167.283 90.3441 168.907 89.2101 171.007 88.3981C173.135 87.5861 175.599 87.1801 178.399 87.1801C181.311 87.1801 183.859 87.6421 186.043 88.5661C188.227 89.4621 189.893 90.5821 191.041 91.9261C192.189 93.2701 192.763 94.5861 192.763 95.8741C192.763 96.1541 192.665 96.3781 192.469 96.5461C192.301 96.7141 192.063 96.7981 191.755 96.7981H182.725C182.249 96.7981 181.815 96.6301 181.423 96.2941C181.115 96.0141 180.751 95.7901 180.331 95.6221C179.911 95.4541 179.267 95.3701 178.399 95.3701C176.523 95.3701 175.585 95.7621 175.585 96.5461C175.585 96.9661 175.949 97.3021 176.677 97.5541C177.405 97.7781 178.861 98.0161 181.045 98.2681Z" fill="black"/>
<g filter="url(#filter1_d)">
<path d="M4.04151 110.754C3.59299 106.614 6.83639 103 11.0008 103H95.3047C99.5037 103 102.758 106.671 102.254 110.84L89.4459 216.84C89.0211 220.355 86.0376 223 82.4964 223H22.4841C18.9099 223 15.9098 220.307 15.5248 216.754L4.04151 110.754Z" fill="url(#paint1_linear)"/>
</g>
<path d="M50.8605 125.79C50.8605 126.419 51.0675 126.902 51.4815 127.239C51.9108 127.576 52.4858 127.745 53.2065 127.745C53.8505 127.745 54.3258 127.638 54.6325 127.423C54.9392 127.208 55.1998 126.886 55.4145 126.457C55.6138 126.058 55.8822 125.859 56.2195 125.859H61.1875C61.3255 125.859 61.4405 125.913 61.5325 126.02C61.6398 126.112 61.6935 126.227 61.6935 126.365C61.6935 127.3 61.3792 128.22 60.7505 129.125C60.1218 130.014 59.1635 130.758 57.8755 131.356C56.6028 131.939 55.0465 132.23 53.2065 132.23C51.5658 132.23 50.1015 131.985 48.8135 131.494C47.5408 130.988 46.5288 130.221 45.7775 129.194C45.0262 128.151 44.6505 126.856 44.6505 125.307V122.593C44.6505 121.044 45.0262 119.756 45.7775 118.729C46.5288 117.686 47.5408 116.92 48.8135 116.429C50.1015 115.923 51.5658 115.67 53.2065 115.67C55.0465 115.67 56.6028 115.969 57.8755 116.567C59.1635 117.15 60.1218 117.893 60.7505 118.798C61.3792 119.687 61.6935 120.6 61.6935 121.535C61.6935 121.673 61.6398 121.796 61.5325 121.903C61.4405 121.995 61.3255 122.041 61.1875 122.041H56.2195C55.8822 122.041 55.6138 121.842 55.4145 121.443C55.1998 121.014 54.9392 120.692 54.6325 120.477C54.3258 120.262 53.8505 120.155 53.2065 120.155C52.4858 120.155 51.9108 120.324 51.4815 120.661C51.0675 120.998 50.8605 121.481 50.8605 122.11V125.79ZM54.2415 149.742C55.9282 149.926 57.2775 150.225 58.2895 150.639C59.3168 151.053 60.0605 151.597 60.5205 152.272C60.9805 152.947 61.2105 153.79 61.2105 154.802C61.2105 155.906 60.8502 156.872 60.1295 157.7C59.4242 158.513 58.4428 159.141 57.1855 159.586C55.9282 160.015 54.4945 160.23 52.8845 160.23C51.0905 160.23 49.5725 160.008 48.3305 159.563C47.0885 159.118 46.1608 158.528 45.5475 157.792C44.9342 157.041 44.6275 156.22 44.6275 155.331C44.6275 155.178 44.6735 155.055 44.7655 154.963C44.8728 154.871 45.0032 154.825 45.1565 154.825H49.8715C50.1935 154.825 50.4542 154.925 50.6535 155.124C50.9142 155.369 51.2055 155.538 51.5275 155.63C51.8495 155.707 52.3018 155.745 52.8845 155.745C54.3412 155.745 55.0695 155.523 55.0695 155.078C55.0695 154.894 54.9698 154.741 54.7705 154.618C54.5865 154.48 54.2492 154.365 53.7585 154.273C53.2832 154.166 52.5778 154.058 51.6425 153.951C49.5418 153.706 47.9318 153.184 46.8125 152.387C45.6932 151.574 45.1335 150.432 45.1335 148.96C45.1335 147.917 45.4478 146.997 46.0765 146.2C46.7052 145.403 47.5945 144.782 48.7445 144.337C49.9098 143.892 51.2592 143.67 52.7925 143.67C54.3872 143.67 55.7825 143.923 56.9785 144.429C58.1745 144.92 59.0868 145.533 59.7155 146.269C60.3442 147.005 60.6585 147.726 60.6585 148.431C60.6585 148.584 60.6048 148.707 60.4975 148.799C60.4055 148.891 60.2752 148.937 60.1065 148.937H55.1615C54.9008 148.937 54.6632 148.845 54.4485 148.661C54.2798 148.508 54.0805 148.385 53.8505 148.293C53.6205 148.201 53.2678 148.155 52.7925 148.155C51.7652 148.155 51.2515 148.37 51.2515 148.799C51.2515 149.029 51.4508 149.213 51.8495 149.351C52.2482 149.474 53.0455 149.604 54.2415 149.742ZM54.2415 177.742C55.9282 177.926 57.2775 178.225 58.2895 178.639C59.3168 179.053 60.0605 179.597 60.5205 180.272C60.9805 180.947 61.2105 181.79 61.2105 182.802C61.2105 183.906 60.8502 184.872 60.1295 185.7C59.4242 186.513 58.4428 187.141 57.1855 187.586C55.9282 188.015 54.4945 188.23 52.8845 188.23C51.0905 188.23 49.5725 188.008 48.3305 187.563C47.0885 187.118 46.1608 186.528 45.5475 185.792C44.9342 185.041 44.6275 184.22 44.6275 183.331C44.6275 183.178 44.6735 183.055 44.7655 182.963C44.8728 182.871 45.0032 182.825 45.1565 182.825H49.8715C50.1935 182.825 50.4542 182.925 50.6535 183.124C50.9142 183.369 51.2055 183.538 51.5275 183.63C51.8495 183.707 52.3018 183.745 52.8845 183.745C54.3412 183.745 55.0695 183.523 55.0695 183.078C55.0695 182.894 54.9698 182.741 54.7705 182.618C54.5865 182.48 54.2492 182.365 53.7585 182.273C53.2832 182.166 52.5778 182.058 51.6425 181.951C49.5418 181.706 47.9318 181.184 46.8125 180.387C45.6932 179.574 45.1335 178.432 45.1335 176.96C45.1335 175.917 45.4478 174.997 46.0765 174.2C46.7052 173.403 47.5945 172.782 48.7445 172.337C49.9098 171.892 51.2592 171.67 52.7925 171.67C54.3872 171.67 55.7825 171.923 56.9785 172.429C58.1745 172.92 59.0868 173.533 59.7155 174.269C60.3442 175.005 60.6585 175.726 60.6585 176.431C60.6585 176.584 60.6048 176.707 60.4975 176.799C60.4055 176.891 60.2752 176.937 60.1065 176.937H55.1615C54.9008 176.937 54.6632 176.845 54.4485 176.661C54.2798 176.508 54.0805 176.385 53.8505 176.293C53.6205 176.201 53.2678 176.155 52.7925 176.155C51.7652 176.155 51.2515 176.37 51.2515 176.799C51.2515 177.029 51.4508 177.213 51.8495 177.351C52.2482 177.474 53.0455 177.604 54.2415 177.742ZM56.6335 206.202C59.5622 206.892 61.0265 208.479 61.0265 210.963C61.0265 212.006 60.6815 212.926 59.9915 213.723C59.3168 214.52 58.3738 215.141 57.1625 215.586C55.9512 216.015 54.5788 216.23 53.0455 216.23C51.2208 216.23 49.7105 215.977 48.5145 215.471C47.3338 214.95 46.4675 214.321 45.9155 213.585C45.3788 212.849 45.1105 212.136 45.1105 211.446C45.1105 211.293 45.1565 211.17 45.2485 211.078C45.3558 210.986 45.4785 210.94 45.6165 210.94H50.6535C50.8222 210.94 50.9985 211.032 51.1825 211.216C51.3972 211.415 51.6118 211.561 51.8265 211.653C52.0412 211.73 52.4552 211.768 53.0685 211.768C53.6512 211.768 54.0882 211.653 54.3795 211.423C54.6708 211.193 54.8165 210.902 54.8165 210.549C54.8165 209.874 54.2262 209.537 53.0455 209.537H49.9865C49.8178 209.537 49.6722 209.476 49.5495 209.353C49.4268 209.23 49.3655 209.085 49.3655 208.916V207.053C49.3655 206.838 49.4115 206.654 49.5035 206.501C49.5955 206.332 49.7105 206.21 49.8485 206.133L53.2295 204.385H46.7895C46.6208 204.385 46.4752 204.324 46.3525 204.201C46.2298 204.078 46.1685 203.933 46.1685 203.764V200.521C46.1685 200.352 46.2298 200.207 46.3525 200.084C46.4752 199.961 46.6208 199.9 46.7895 199.9H59.3475C59.5162 199.9 59.6618 199.961 59.7845 200.084C59.9072 200.207 59.9685 200.352 59.9685 200.521V203.442C59.9685 203.795 59.8075 204.101 59.4855 204.362L56.6335 206.202Z" fill="black"/>
<g filter="url(#filter2_d)">
<path d="M40.8587 7.76902C40.4005 3.62379 43.6458 0 47.8163 0H132.084C136.29 0 139.546 3.68236 139.031 7.8565L126.257 111.472C125.825 114.98 122.845 117.615 119.31 117.615H59.2689C55.7005 117.615 52.7033 114.931 52.3113 111.384L40.8587 7.76902Z" fill="url(#paint2_linear)"/>
</g>
<path d="M67.192 22.4602C67.368 22.4602 67.52 22.5242 67.648 22.6522C67.776 22.7802 67.84 22.9322 67.84 23.1082V38.6122C67.84 38.7882 67.776 38.9402 67.648 39.0682C67.52 39.1962 67.368 39.2602 67.192 39.2602H62.248C62.072 39.2602 61.92 39.1962 61.792 39.0682C61.664 38.9402 61.6 38.7882 61.6 38.6122V33.5002H56.8V38.6122C56.8 38.7882 56.736 38.9402 56.608 39.0682C56.48 39.1962 56.328 39.2602 56.152 39.2602H51.208C51.032 39.2602 50.88 39.2042 50.752 39.0922C50.624 38.9642 50.56 38.8042 50.56 38.6122V23.1082C50.56 22.9322 50.624 22.7802 50.752 22.6522C50.88 22.5242 51.032 22.4602 51.208 22.4602H56.152C56.328 22.4602 56.48 22.5242 56.608 22.6522C56.736 22.7802 56.8 22.9322 56.8 23.1082V28.0282H61.6V23.1082C61.6 22.9322 61.664 22.7802 61.792 22.6522C61.92 22.5242 62.072 22.4602 62.248 22.4602H67.192ZM87.8706 22.4602C88.0466 22.4602 88.1986 22.5242 88.3266 22.6522C88.4546 22.7802 88.5186 22.9322 88.5186 23.1082V26.9722C88.5186 27.1482 88.4546 27.3002 88.3266 27.4282C88.1986 27.5562 88.0466 27.6202 87.8706 27.6202H82.7106V38.6122C82.7106 38.7882 82.6466 38.9402 82.5186 39.0682C82.3906 39.1962 82.2386 39.2602 82.0626 39.2602H77.1186C76.9426 39.2602 76.7906 39.1962 76.6626 39.0682C76.5346 38.9402 76.4706 38.7882 76.4706 38.6122V27.6202H71.3106C71.1346 27.6202 70.9826 27.5562 70.8546 27.4282C70.7266 27.3002 70.6626 27.1482 70.6626 26.9722V23.1082C70.6626 22.9322 70.7266 22.7802 70.8546 22.6522C70.9826 22.5242 71.1346 22.4602 71.3106 22.4602H87.8706ZM103.125 23.1082C103.365 22.6762 103.709 22.4602 104.157 22.4602H108.549C108.725 22.4602 108.877 22.5242 109.005 22.6522C109.133 22.7802 109.197 22.9322 109.197 23.1082V38.6122C109.197 38.7882 109.133 38.9402 109.005 39.0682C108.877 39.1962 108.725 39.2602 108.549 39.2602H104.205C104.029 39.2602 103.877 39.1962 103.749 39.0682C103.621 38.9402 103.557 38.7882 103.557 38.6122V31.1722L101.805 34.6282C101.757 34.7402 101.645 34.8682 101.469 35.0122C101.293 35.1562 101.069 35.2282 100.797 35.2282H99.1653C98.8933 35.2282 98.6693 35.1562 98.4933 35.0122C98.3173 34.8682 98.2053 34.7402 98.1573 34.6282L96.4053 31.1722V38.6122C96.4053 38.7882 96.3413 38.9402 96.2133 39.0682C96.0853 39.1962 95.9333 39.2602 95.7573 39.2602H91.4133C91.2373 39.2602 91.0853 39.1962 90.9573 39.0682C90.8293 38.9402 90.7653 38.7882 90.7653 38.6122V23.1082C90.7653 22.9322 90.8293 22.7802 90.9573 22.6522C91.0853 22.5242 91.2373 22.4602 91.4133 22.4602H95.8053C96.2533 22.4602 96.5973 22.6762 96.8372 23.1082L99.9813 28.8682L103.125 23.1082ZM128.196 34.3402C128.372 34.3402 128.524 34.4042 128.652 34.5322C128.78 34.6602 128.844 34.8122 128.844 34.9882V38.6122C128.844 38.7882 128.78 38.9402 128.652 39.0682C128.524 39.1962 128.372 39.2602 128.196 39.2602H114.18C114.004 39.2602 113.852 39.1962 113.724 39.0682C113.596 38.9402 113.532 38.7882 113.532 38.6122V23.1082C113.532 22.9322 113.596 22.7802 113.724 22.6522C113.852 22.5242 114.004 22.4602 114.18 22.4602H119.364C119.54 22.4602 119.692 22.5242 119.82 22.6522C119.948 22.7802 120.012 22.9322 120.012 23.1082V34.3402H128.196Z" fill="black"/>
<path d="M86.391 90.3725C86.8857 91.0085 87.4333 91.4855 88.034 91.8035C88.6347 92.0862 89.359 92.2275 90.207 92.2275C91.4437 92.2275 92.4153 91.9449 93.122 91.3795C93.864 90.7789 94.235 89.9662 94.235 88.9415C94.235 87.9169 93.864 87.1219 93.122 86.5565C92.38 85.9912 91.4083 85.7085 90.207 85.7085C89.5357 85.7085 88.988 85.7969 88.564 85.9735C88.14 86.1149 87.716 86.3092 87.292 86.5565C86.9033 86.8392 86.5677 86.9805 86.285 86.9805H75.738C75.42 86.9805 75.1373 86.8745 74.89 86.6625C74.678 86.4152 74.572 86.1325 74.572 85.8145C74.572 85.6379 74.572 85.5495 74.572 85.5495L76.639 67.1585C76.7097 66.4872 76.9747 65.9572 77.434 65.5685C77.8933 65.1445 78.4587 64.9325 79.13 64.9325H104.305C104.694 64.9325 105.029 65.0739 105.312 65.3565C105.595 65.6392 105.736 65.9749 105.736 66.3635V73.8365C105.736 74.2252 105.595 74.5609 105.312 74.8435C105.029 75.1262 104.694 75.2675 104.305 75.2675H87.504L87.08 78.9245C88.14 78.2532 89.2353 77.7939 90.366 77.5465C91.4967 77.2639 93.0337 77.1225 94.977 77.1225C97.309 77.1225 99.4997 77.6525 101.549 78.7125C103.634 79.7725 105.294 81.2389 106.531 83.1115C107.803 84.9489 108.439 87.0159 108.439 89.3125C108.439 91.8212 107.679 94.0825 106.16 96.0965C104.676 98.1105 102.556 99.7005 99.8 100.867C97.044 101.997 93.8287 102.563 90.154 102.563C86.55 102.563 83.423 102.033 80.773 100.973C78.123 99.8772 76.0913 98.4285 74.678 96.6265C73.3 94.8245 72.611 92.8459 72.611 90.6905C72.611 90.3725 72.717 90.1075 72.929 89.8955C73.1763 89.6482 73.459 89.5245 73.777 89.5245H84.483C85.2957 89.5245 85.9317 89.8072 86.391 90.3725Z" fill="black"/>
<defs>
<filter id="filter0_d" x="108" y="39" width="106.306" height="128" filterUnits="userSpaceOnUse" color-interpolation-filters="sRGB">
<feFlood flood-opacity="0" result="BackgroundImageFix"/>
<feColorMatrix in="SourceAlpha" type="matrix" values="0 0 0 0 0 0 0 0 0 0 0 0 0 0 0 0 0 0 127 0"/>
<feOffset dy="4"/>
<feGaussianBlur stdDeviation="2"/>
<feColorMatrix type="matrix" values="0 0 0 0 0 0 0 0 0 0 0 0 0 0 0 0 0 0 0.53 0"/>
<feBlend mode="normal" in2="BackgroundImageFix" result="effect1_dropShadow"/>
<feBlend mode="normal" in="SourceGraphic" in2="effect1_dropShadow" result="shape"/>
</filter>
<filter id="filter1_d" x="0" y="103" width="106.306" height="128" filterUnits="userSpaceOnUse" color-interpolation-filters="sRGB">
<feFlood flood-opacity="0" result="BackgroundImageFix"/>
<feColorMatrix in="SourceAlpha" type="matrix" values="0 0 0 0 0 0 0 0 0 0 0 0 0 0 0 0 0 0 127 0"/>
<feOffset dy="4"/>
<feGaussianBlur stdDeviation="2"/>
<feColorMatrix type="matrix" values="0 0 0 0 0 0 0 0 0 0 0 0 0 0 0 0 0 0 0.49 0"/>
<feBlend mode="normal" in2="BackgroundImageFix" result="effect1_dropShadow"/>
<feBlend mode="normal" in="SourceGraphic" in2="effect1_dropShadow" result="shape"/>
</filter>
<filter id="filter2_d" x="36.8155" y="0" width="106.269" height="125.615" filterUnits="userSpaceOnUse" color-interpolation-filters="sRGB">
<feFlood flood-opacity="0" result="BackgroundImageFix"/>
<feColorMatrix in="SourceAlpha" type="matrix" values="0 0 0 0 0 0 0 0 0 0 0 0 0 0 0 0 0 0 127 0"/>
<feOffset dy="4"/>
<feGaussianBlur stdDeviation="2"/>
<feColorMatrix type="matrix" values="0 0 0 0 0 0 0 0 0 0 0 0 0 0 0 0 0 0 0.49 0"/>
<feBlend mode="normal" in2="BackgroundImageFix" result="effect1_dropShadow"/>
<feBlend mode="normal" in="SourceGraphic" in2="effect1_dropShadow" result="shape"/>
</filter>
<linearGradient id="paint0_linear" x1="127.202" y1="13.5622" x2="231.572" y2="206.54" gradientUnits="userSpaceOnUse">
<stop offset="0.133097" stop-color="#FAFF00"/>
<stop offset="1" stop-color="white" stop-opacity="0.61"/>
</linearGradient>
<linearGradient id="paint1_linear" x1="19.2015" y1="77.5622" x2="123.572" y2="270.54" gradientUnits="userSpaceOnUse">
<stop stop-color="#2091FA"/>
<stop offset="1" stop-color="#E3E3E3" stop-opacity="0.44"/>
</linearGradient>
<linearGradient id="paint2_linear" x1="90" y1="0" x2="90" y2="160.434" gradientUnits="userSpaceOnUse">
<stop stop-color="#FF8F8F"/>
<stop offset="1" stop-color="#FFE6E6" stop-opacity="0.44"/>
</linearGradient>
</defs>
</svg>
